PathFileType	4	(X/Y/Z)	C:/Git/opensim_tutorial/tutorials/repeated_sprinting/Simulations/PC013/markers.trc	
DataRate	CameraRate	NumFrames	NumMarkers	Units	OrigDataRate	OrigDataStartFrame	OrigNumFrames	
100.00	100.00	5	49	mm	100.00	3014	302	
Frame#	Time	RASIS			LASIS			RPSIS			LPSIS			RTH1			RTH2			RTH3			RTH4			LTH1			LTH2			LTH3			LTH4			RLK			LLK			RSK1			RSK2			RSK3			RSK4			LSK1			LSK2			LSK3			LSK4			RLA			RMA			RHEE			RPCA			RLCA			RSTL			RP1MT			RD1MT			RP5MT			RD5MT			RTOE			RHLX			LLA			LMA			LHEE			LPCA			LLCA			LSTL			LP1MT			LP5MT			LD5MT			LTOE			RAC			LAC			C7			STRN1			STRN2			
		X1	Y1	Z1	X2	Y2	Z2	X3	Y3	Z3	X4	Y4	Z4	X5	Y5	Z5	X6	Y6	Z6	X7	Y7	Z7	X8	Y8	Z8	X9	Y9	Z9	X10	Y10	Z10	X11	Y11	Z11	X12	Y12	Z12	X13	Y13	Z13	X14	Y14	Z14	X15	Y15	Z15	X16	Y16	Z16	X17	Y17	Z17	X18	Y18	Z18	X19	Y19	Z19	X20	Y20	Z20	X21	Y21	Z21	X22	Y22	Z22	X23	Y23	Z23	X24	Y24	Z24	X25	Y25	Z25	X26	Y26	Z26	X27	Y27	Z27	X28	Y28	Z28	X29	Y29	Z29	X30	Y30	Z30	X31	Y31	Z31	X32	Y32	Z32	X33	Y33	Z33	X34	Y34	Z34	X35	Y35	Z35	X36	Y36	Z36	X37	Y37	Z37	X38	Y38	Z38	X39	Y39	Z39	X40	Y40	Z40	X41	Y41	Z41	X42	Y42	Z42	X43	Y43	Z43	X44	Y44	Z44	X45	Y45	Z45	X46	Y46	Z46	X47	Y47	Z47	X48	Y48	Z48	X49	Y49	Z49	

227	2.260	-511.81421	111.11897	816.15027	-503.86526	-108.47430	818.97693	-336.26486	62.50618	859.45953	-331.09570	-38.36559	859.45862	-507.09613	168.28894	578.08069	-518.93048	160.06020	518.64313	-567.46655	144.18051	498.79974	-566.34192	132.37257	562.08374	-507.82132	-135.13991	573.79980	-538.80829	-113.96513	503.57755	-572.89581	-119.64454	551.75201	-549.49188	-132.99635	603.54840	-567.17975	132.94444	369.07639	-622.76440	-87.85538	395.20706	-351.06326	152.95683	297.59808	-401.43933	168.90941	248.24529	-352.22546	172.01807	261.25836	-319.26733	171.56979	239.53487	-515.52039	-113.25980	215.42648	-546.68359	-103.94339	238.49944	-542.37897	-115.28618	276.88440	-507.70609	-112.46880	297.52332	-242.84813	187.64044	173.17368	-264.55487	116.33472	130.78146	-174.67229	137.44221	172.87669	-212.78348	137.67184	188.45207	-200.41313	180.66093	163.48700	-205.13535	113.70972	141.28915	-294.27881	147.93097	93.31415	-308.18658	158.15251	51.69580	-230.36574	216.73819	113.40888	-264.65903	240.55006	85.44499	-308.93939	205.03464	86.61650	-320.64896	175.65935	25.16281	-391.53638	-124.83916	80.64493	-435.10538	-55.77311	46.16356	-339.57785	-67.21787	61.44069	-362.74930	-68.38983	87.04103	-352.29123	-112.94896	58.91732	-374.18030	-48.16742	44.99626	-475.46838	-91.77496	43.86097	-399.56598	-161.79456	21.16110	-441.32278	-196.73604	19.33996	-484.97659	-147.82217	52.31255	-510.73291	143.91791	1267.15662	-391.11270	-182.70364	1279.70618	-428.02985	-4.98392	1332.56274	-563.06110	-45.74554	1266.73047	-581.12183	-58.72560	1211.63184 
228	2.270	-516.85504	109.44024	818.22003	-510.06390	-110.79714	819.71997	-341.43842	60.58687	861.16541	-336.76410	-40.59976	861.16290	-514.66016	168.92860	582.43152	-527.33508	160.21605	522.48309	-576.56329	145.60484	503.41061	-574.51495	133.52432	566.55347	-511.51288	-136.51685	574.36200	-541.78766	-115.15707	503.74579	-576.39001	-120.81861	551.55927	-553.58557	-134.29260	603.59540	-579.33997	134.13719	373.97775	-624.61627	-88.72471	394.49396	-363.93185	151.97534	300.11102	-414.78915	168.73311	251.29652	-365.20197	171.10136	263.95535	-332.54718	170.64781	241.83566	-516.30090	-113.84262	215.33514	-547.55829	-104.56949	238.27089	-543.43353	-115.98093	276.72717	-508.82825	-113.16849	297.46945	-256.89865	186.29814	174.46823	-279.85474	115.16470	131.99597	-188.97923	135.81305	172.82118	-226.89240	136.19200	188.95058	-214.91371	179.51097	163.97285	-220.11787	112.16228	141.76263	-309.41971	146.28915	95.42800	-323.92258	156.63840	54.44480	-245.65196	215.10823	115.00994	-281.24442	238.55135	87.00847	-324.13364	203.25784	89.93913	-339.91431	173.07050	29.38099	-391.59518	-125.27905	81.01228	-434.97394	-56.13145	46.39285	-339.54260	-67.52118	62.16441	-362.94827	-68.76608	87.73174	-352.45944	-113.05595	59.41942	-374.00031	-48.54222	45.51463	-475.28214	-92.07281	43.99445	-399.43326	-162.18910	21.09217	-441.15295	-197.03560	19.16207	-484.78183	-148.18417	52.27714	-515.09326	142.41701	1269.42175	-398.50870	-185.21771	1281.37817	-433.74939	-6.93466	1334.34924	-569.01105	-46.73993	1268.47473	-587.11554	-59.52672	1213.32129 
229	2.280	-521.79218	108.20421	820.12933	-515.63593	-111.98771	820.87402	-346.33249	58.56352	862.65289	-342.36606	-42.78905	862.79285	-521.97345	168.63028	585.66595	-535.91107	160.18515	525.88531	-585.73981	146.53035	507.86179	-582.74445	134.36426	570.95270	-515.64667	-137.74884	574.79553	-545.08984	-116.31256	503.97125	-580.23138	-121.54457	551.35345	-557.94458	-135.23453	603.81293	-591.87347	134.91589	378.94308	-626.50104	-89.36626	393.68567	-377.60437	151.47693	302.18585	-429.14294	168.85938	254.12225	-379.42819	170.90836	265.99683	-347.08994	170.21356	243.51125	-517.34161	-114.32013	215.20767	-548.56622	-105.20922	238.18321	-544.62964	-116.52925	276.52222	-510.11008	-113.77216	297.36511	-272.81604	185.92445	174.46501	-295.47363	114.22527	132.86911	-204.40756	135.89508	172.15311	-242.20284	136.15390	188.51688	-230.94458	179.25542	163.41069	-235.68854	111.81312	141.47459	-325.83078	144.58836	96.46567	-341.15460	154.90753	55.68287	-263.28299	214.70631	115.05654	-299.09668	237.24597	87.24037	-342.07043	200.36311	91.95993	-361.09341	170.99232	33.20385	-391.81342	-125.94138	81.79145	-434.83212	-56.47320	46.68363	-339.50092	-67.85096	63.04588	-363.01367	-69.15700	88.33619	-352.48230	-113.56276	60.29773	-373.80432	-48.84100	46.07173	-475.10959	-92.28666	43.99228	-399.38693	-162.56279	21.05027	-441.02066	-197.29343	18.96716	-484.57047	-148.51701	52.24780	-519.34930	141.08369	1271.48975	-406.19824	-187.75771	1283.08936	-439.30981	-8.83555	1335.97363	-574.91901	-47.50256	1269.94885	-593.05432	-60.11380	1214.80627 
230	2.290	-526.89856	106.96338	822.34113	-521.60284	-113.08968	822.39575	-351.38220	56.34108	863.89435	-347.89908	-44.76331	863.96698	-529.22418	167.45192	587.97870	-544.57733	159.77805	529.22943	-595.19830	147.03029	512.15533	-591.04639	135.10709	575.15619	-520.11060	-138.81831	575.27264	-548.83203	-117.39257	504.09189	-584.42175	-122.20380	551.22742	-562.63428	-135.81708	603.83105	-604.87506	135.15129	383.95563	-628.29498	-90.07934	392.85541	-392.07880	151.41821	303.65695	-444.34927	168.63838	256.54425	-394.46970	170.67535	267.64059	-362.51840	170.09645	244.44922	-518.42242	-114.61416	214.95096	-549.76111	-105.51875	237.72086	-545.94214	-117.07996	276.16745	-511.56747	-114.28221	297.12241	-289.77573	185.92494	173.94388	-312.76926	114.06261	132.78450	-220.72826	136.84799	170.19794	-258.21988	136.53038	187.45842	-248.18161	179.70529	162.01256	-252.26540	112.22649	140.23953	-344.06644	143.63199	97.68977	-360.83377	153.19562	57.20137	-281.68185	215.10378	112.85144	-318.73483	237.07140	86.45604	-361.54361	199.25793	93.25617	-381.90903	168.34584	35.74291	-392.00775	-126.20134	82.05322	-434.83145	-56.78254	46.82893	-339.64957	-68.04891	63.74428	-363.21664	-69.45003	88.98895	-352.50888	-113.76251	60.90440	-373.92358	-49.05548	46.61322	-474.96274	-92.55630	44.00613	-399.28738	-162.80067	21.01419	-440.87335	-197.48253	18.81023	-484.42795	-148.82050	52.21023	-523.63885	139.89694	1273.09485	-413.98007	-189.91998	1284.45789	-444.86261	-10.62000	1337.38940	-580.75189	-47.85600	1271.19177	-598.90546	-60.52354	1215.96814 
231	2.300	-531.98547	106.28948	824.03729	-527.29492	-114.17151	823.92279	-356.48758	54.26002	864.85553	-353.40738	-46.66030	864.70746	-536.59271	166.58562	590.44452	-553.39453	159.04698	532.04883	-604.47321	147.30573	516.23169	-599.38989	135.61911	579.26062	-524.78259	-139.81366	575.69946	-552.73187	-118.32413	504.20105	-588.71240	-122.59673	551.14038	-567.44940	-136.24982	603.95282	-618.23297	134.60620	388.96750	-630.12305	-90.85148	392.09232	-407.14844	151.34624	304.47659	-460.55429	168.55037	258.61816	-410.37463	170.66302	268.67123	-378.93417	170.16347	244.77315	-519.66632	-114.90222	214.53917	-551.10858	-105.75137	237.14720	-547.52716	-117.32610	275.53900	-513.18933	-114.57824	296.81085	-307.91724	186.34608	172.68246	-331.20319	114.23822	132.40121	-238.31015	137.75438	167.14951	-275.85938	137.66525	185.44876	-266.40872	180.33322	159.63095	-270.28485	112.95657	137.86859	-363.91705	143.73100	98.32744	-382.08652	152.34335	59.03963	-301.71954	215.89839	111.55019	-339.58511	237.30229	85.79322	-381.49725	198.90115	93.35084	-402.90060	166.84801	37.09398	-392.16898	-126.34087	82.47382	-434.91241	-56.93085	46.98502	-339.78232	-68.15141	64.48307	-363.48209	-69.63457	89.58121	-352.62195	-113.78149	61.52876	-373.85141	-49.28144	47.46718	-474.93127	-92.73358	44.01333	-399.25369	-162.99155	21.07594	-440.76584	-197.65833	18.74365	-484.28534	-149.05103	52.12212	-527.81006	138.90981	1274.63721	-421.78775	-192.04701	1286.06238	-450.54895	-11.53233	1339.13733	-586.63318	-48.32594	1272.13086	-604.66473	-60.72607	1216.89795 
